<?xml version="1.0" standalone="no"?>
<!DOCTYPE svg PUBLIC "-//W3C//DTD SVG 20010904//EN"
 "http://www.w3.org/TR/2001/REC-SVG-20010904/DTD/svg10.dtd">
<svg version="1.0" xmlns="http://www.w3.org/2000/svg"
 width="860.000000pt" height="860.000000pt" viewBox="0 0 860.000000 860.000000"
 preserveAspectRatio="xMidYMid meet">

<g transform="translate(0.000000,860.000000) scale(0.100000,-0.100000)"
fill="#000000" stroke="none">
<path d="M0 4300 l0 -4300 4300 0 4300 0 0 4300 0 4300 -1272 0 -1273 -1 37
-32 c41 -36 100 -120 201 -287 119 -197 136 -230 153 -293 8 -33 25 -79 36
-101 25 -49 72 -189 103 -306 12 -47 41 -152 64 -235 24 -82 55 -213 71 -290
16 -77 33 -151 38 -165 5 -14 19 -72 31 -130 12 -58 28 -135 36 -171 27 -122
17 -179 -33 -179 -38 0 -48 9 -72 65 -12 28 -27 57 -35 65 -15 17 -95 211 -95
232 0 7 -15 37 -32 65 -34 53 -53 84 -89 143 -46 75 -94 146 -113 168 -11 12
-29 38 -40 56 -12 19 -42 62 -68 95 -26 33 -53 72 -62 88 -18 36 -137 176
-229 272 -140 145 -356 328 -542 460 -186 132 -188 136 -135 209 32 44 96 92
252 189 55 33 105 66 111 72 8 8 -770 11 -2816 11 l-2827 0 0 -4300z m4675
3910 c155 -13 456 -75 515 -105 89 -46 247 -156 369 -257 118 -97 288 -254
335 -307 11 -14 37 -41 57 -60 36 -37 121 -135 168 -196 88 -113 116 -152 191
-265 129 -194 130 -196 130 -204 0 -4 18 -45 40 -91 22 -46 40 -87 40 -92 0
-4 14 -25 30 -46 19 -26 35 -65 46 -115 31 -144 61 -257 89 -331 47 -129 83
-536 62 -713 -12 -105 -36 -206 -64 -261 -26 -52 -131 -211 -197 -296 -91
-119 -290 -291 -337 -291 -48 0 -47 62 1 140 15 25 31 56 35 70 4 14 18 43 31
66 31 53 31 104 2 132 -36 32 -68 36 -126 13 -126 -50 -152 -3 -83 144 52 108
90 253 117 445 59 414 34 905 -50 999 -29 32 -84 157 -101 229 -9 39 -26 83
-36 97 -11 13 -28 48 -39 77 -53 148 -70 184 -104 224 -51 59 -106 58 -106 -3
0 -26 36 -121 54 -143 7 -8 21 -35 30 -60 10 -25 26 -54 37 -65 10 -12 27 -45
38 -75 11 -30 31 -81 44 -113 43 -103 12 -146 -90 -128 -87 16 -108 36 -109
102 -1 87 -38 146 -178 282 -132 129 -197 170 -264 166 -20 -1 -51 5 -69 14
-77 40 -145 9 -252 -117 -91 -107 -110 -115 -202 -81 -151 54 -221 98 -330
208 -123 122 -145 150 -170 220 -20 55 -61 97 -95 97 -31 0 -92 -67 -108 -119
-8 -25 -43 -102 -78 -171 -36 -69 -70 -138 -76 -155 -14 -35 -48 -96 -94 -169
-51 -79 -56 -88 -78 -128 -25 -47 -90 -108 -114 -108 -10 0 -42 16 -71 35 -99
65 -163 56 -228 -32 -50 -70 -150 -257 -232 -438 -71 -154 -58 -243 42 -290
30 -14 57 -33 60 -41 10 -28 -8 -80 -45 -131 -22 -28 -58 -89 -81 -137 -33
-68 -47 -87 -68 -92 -21 -6 -31 -2 -46 17 -18 22 -19 35 -14 164 4 77 12 174
18 216 7 42 9 84 6 93 -4 9 -22 24 -42 33 -33 16 -36 16 -53 0 -16 -16 -17
-50 -15 -405 1 -319 4 -397 17 -442 9 -30 25 -98 36 -150 11 -52 31 -129 44
-170 14 -41 27 -89 31 -107 8 -39 77 -176 111 -217 13 -17 37 -47 52 -65 40
-51 99 -106 165 -154 110 -79 108 -77 101 -101 -3 -11 -16 -31 -27 -44 -27
-29 -92 -30 -166 -1 -64 24 -96 19 -105 -15 -8 -31 1 -53 36 -94 53 -62 29
-132 -47 -132 -38 0 -116 22 -178 49 -27 11 -58 21 -70 21 -19 0 -70 22 -212
91 -33 16 -91 53 -130 82 -96 71 -289 267 -326 330 -16 29 -48 77 -70 107 -64
89 -66 92 -84 155 -9 33 -25 76 -36 97 -10 20 -26 79 -34 130 -8 51 -22 127
-31 168 -30 144 9 522 75 732 17 51 51 166 76 256 62 219 145 445 183 499 11
16 29 50 41 77 12 27 41 71 66 97 33 35 45 56 45 79 0 38 -14 44 -79 32 -28
-5 -51 -6 -51 -3 0 4 8 36 18 71 16 59 81 166 112 185 6 3 19 23 29 43 20 38
131 180 186 237 51 54 177 159 245 205 36 24 79 55 96 70 31 27 253 139 389
198 233 100 537 191 709 214 72 9 287 21 461 26 33 1 114 -3 180 -8z m-2611
-516 c66 -22 91 -38 155 -94 115 -101 153 -147 145 -173 -8 -29 -44 -87 -99
-162 -53 -72 -102 -163 -121 -225 -13 -42 -33 -79 -118 -210 -41 -64 -126
-309 -126 -364 0 -19 -7 -53 -15 -73 -8 -21 -22 -94 -31 -163 -26 -205 -31
-234 -43 -260 -6 -14 -20 -72 -31 -129 -12 -57 -28 -134 -36 -170 -9 -36 -19
-104 -24 -151 -6 -71 -11 -87 -30 -100 -12 -8 -41 -31 -64 -51 -55 -48 -275
-153 -378 -180 -37 -10 -52 -10 -73 -1 -30 14 -30 -26 -2 377 9 121 21 328 27
459 6 132 18 276 26 320 8 45 23 146 34 226 24 178 69 392 109 524 17 54 31
103 31 108 0 5 17 53 38 106 90 227 235 379 392 412 63 13 142 4 234 -26z
m2103 -405 c18 -11 40 -33 48 -47 20 -39 203 -214 255 -244 25 -15 86 -48 135
-74 109 -56 135 -78 135 -116 0 -16 5 -49 11 -74 20 -79 51 -85 359 -75 124 4
240 3 258 -2 18 -4 54 -22 80 -38 82 -52 221 -90 350 -97 93 -4 119 -9 144
-26 47 -32 87 -95 98 -155 20 -107 10 -610 -16 -746 -5 -28 -24 -112 -57 -250
-23 -95 -111 -299 -154 -358 -24 -33 -30 -85 -13 -117 16 -29 73 -43 146 -35
45 5 69 3 79 -5 24 -20 19 -95 -10 -144 -30 -51 -65 -150 -65 -183 0 -13 11
-41 25 -61 42 -62 26 -111 -43 -132 -20 -7 -57 -24 -82 -38 -62 -36 -170 -88
-200 -97 -14 -4 -47 -18 -75 -31 -70 -32 -241 -98 -295 -113 -25 -7 -70 -23
-100 -36 -130 -55 -239 -93 -299 -104 -36 -7 -87 -21 -114 -32 -73 -29 -315
-99 -487 -140 -47 -11 -117 -29 -155 -40 -139 -38 -466 -79 -674 -83 -184 -5
-198 -4 -270 19 -42 14 -85 25 -95 25 -11 0 -47 13 -81 30 -34 16 -82 34 -108
39 -53 10 -123 66 -171 138 -31 48 -30 81 3 63 11 -5 44 -10 73 -10 91 0 346
-49 426 -81 23 -10 37 -11 49 -3 36 23 39 41 17 124 -20 75 -21 82 -5 111 12
25 30 37 81 56 36 13 116 49 179 81 126 63 142 81 121 133 l-13 31 -71 -4
c-80 -5 -128 11 -226 76 -111 73 -247 226 -276 310 -7 22 -25 64 -38 91 -33
67 -86 306 -86 390 0 62 4 75 71 208 39 78 77 149 84 157 7 8 24 38 38 65 14
28 42 73 61 100 20 28 49 78 65 111 43 91 186 230 288 282 23 12 44 26 48 32
3 5 34 23 68 39 92 44 129 79 130 122 1 29 -9 47 -56 102 -86 102 -86 144 4
262 39 52 48 66 99 155 24 41 49 82 55 90 15 19 85 156 118 230 24 54 81 140
93 140 4 0 22 -9 41 -21z m1095 -186 c129 -120 238 -236 244 -259 5 -18 1 -31
-13 -45 -17 -17 -33 -20 -109 -20 -49 0 -125 -4 -169 -9 -44 -4 -125 -11 -181
-15 -117 -7 -134 1 -134 64 0 32 11 51 69 122 92 110 148 167 191 189 19 11
39 19 43 20 4 0 31 -21 59 -47z m-1712 -605 c55 -57 103 -113 106 -126 10 -36
-36 -87 -95 -107 -28 -9 -84 -34 -126 -56 -42 -21 -83 -39 -92 -39 -9 0 -30
-8 -47 -19 -53 -32 -104 -45 -121 -31 -30 25 -24 45 72 247 23 51 43 95 43 99
0 3 19 35 42 70 40 60 45 64 80 64 35 0 46 -8 138 -102z m4477 7 c26 -18 36
-57 23 -87 -21 -47 -199 -281 -306 -403 -44 -49 -99 -115 -124 -144 -110 -134
-437 -431 -475 -431 -26 0 -35 26 -35 107 0 78 -2 84 -31 117 -39 45 -55 49
-115 31 -27 -8 -56 -15 -65 -15 -41 0 -57 133 -23 191 22 37 96 83 207 130
114 47 149 83 115 117 -19 19 -80 14 -134 -12 -92 -46 -166 -76 -186 -76 -11
0 -33 13 -49 29 -27 28 -29 34 -29 110 0 97 7 103 118 120 40 6 96 20 125 31
52 21 174 49 322 75 44 8 109 21 145 29 159 35 289 67 335 80 67 19 155 20
182 1z m-824 -1265 c24 -28 30 -48 58 -197 6 -32 17 -78 24 -103 19 -57 90
-346 105 -425 7 -33 20 -91 31 -130 10 -38 28 -123 39 -189 11 -65 25 -126 30
-135 5 -10 18 -75 30 -147 11 -71 29 -156 40 -189 26 -80 67 -284 85 -420 18
-137 54 -451 66 -565 14 -129 13 -848 0 -898 -13 -48 -45 -76 -71 -62 -24 13
-40 122 -40 267 0 65 -7 159 -15 208 -9 50 -20 141 -25 203 -10 135 -28 175
-78 180 -52 5 -57 -19 -46 -222 11 -184 4 -316 -21 -403 -8 -28 -15 -66 -15
-85 0 -48 -43 -216 -67 -263 -11 -22 -35 -75 -52 -117 -18 -42 -39 -82 -47
-89 -8 -7 -14 -30 -14 -58 0 -54 -35 -124 -51 -100 -5 8 -9 46 -9 86 0 39 -4
74 -9 77 -16 10 -19 88 -5 135 7 25 14 64 14 86 0 22 6 51 13 65 19 35 14 199
-8 285 -10 39 -30 88 -44 110 -13 22 -48 85 -76 140 -28 56 -77 134 -108 175
-31 40 -57 80 -57 88 0 8 -31 48 -69 88 -81 85 -91 114 -72 214 7 36 15 88 17
115 3 28 9 54 13 58 13 13 122 36 161 34 33 -2 36 1 64 57 15 33 30 75 32 95
15 145 16 183 4 225 -16 59 -9 80 23 65 51 -23 165 73 199 168 21 59 17 350
-6 435 -9 37 -30 127 -46 200 -16 73 -38 162 -50 198 -12 36 -40 121 -62 190
-56 174 -92 238 -143 261 -22 10 -48 19 -57 19 -28 0 -68 -69 -68 -118 0 -24
-8 -57 -17 -75 -14 -27 -17 -78 -22 -317 -5 -219 -9 -285 -19 -285 -11 0 -113
157 -153 235 -9 19 -29 46 -43 59 -31 29 -34 72 -7 98 27 26 38 51 50 115 7
42 24 78 59 130 57 84 229 263 288 300 22 14 64 48 94 75 64 57 100 83 116 83
7 0 24 -13 37 -30z m-5406 -91 c15 -39 9 -98 -13 -140 -11 -23 -21 -29 -47
-29 -53 0 -102 -16 -387 -123 -149 -56 -229 -92 -315 -140 -44 -25 -102 -57
-128 -72 -84 -45 -102 -126 -29 -133 23 -2 38 4 61 27 18 17 48 40 69 51 20
11 44 24 52 30 29 17 185 88 222 100 21 6 40 15 43 20 3 5 36 18 73 31 37 12
83 30 103 40 19 9 64 25 100 34 35 9 85 30 112 47 37 24 54 29 80 24 58 -11
52 -1 138 -245 24 -68 24 -72 -2 -105 -18 -22 -28 -26 -74 -26 -115 0 -140
-35 -130 -180 7 -98 7 -98 -19 -115 -22 -15 -40 -16 -118 -10 -51 4 -133 16
-183 27 -170 36 -290 50 -435 53 -80 1 -167 8 -195 14 -27 7 -74 12 -103 12
-31 0 -101 15 -170 35 -64 19 -148 44 -185 55 -104 30 -126 50 -113 103 6 24
79 64 310 170 54 25 115 61 136 80 21 18 64 43 96 55 33 12 77 33 99 45 22 13
89 45 148 71 60 26 123 55 140 65 18 11 86 38 152 60 66 23 136 51 155 62 24
14 65 23 130 29 52 5 113 13 135 17 54 11 78 1 92 -39z m4611 -721 c7 -7 27
-37 43 -67 16 -31 40 -70 52 -86 79 -108 100 -141 151 -232 31 -57 65 -126 76
-155 10 -29 30 -84 44 -123 31 -85 32 -115 6 -145 -17 -20 -26 -22 -72 -16
-29 3 -116 12 -193 20 -77 8 -210 24 -295 36 -177 24 -245 27 -296 10 -62 -21
-100 -6 -174 68 -37 37 -88 96 -114 131 -40 56 -47 70 -44 105 3 39 5 41 53
58 28 10 77 31 110 47 33 16 98 44 145 61 47 18 96 40 110 50 14 10 48 29 75
43 74 37 126 82 163 140 51 82 105 100 160 55z m-4384 -40 c28 -15 36 -28 36
-59 0 -26 -14 -42 -58 -67 -25 -14 -50 -4 -93 39 -19 19 -27 88 -11 103 9 10
99 -2 126 -16z m221 -179 c10 -15 -1 -23 -20 -15 -9 3 -13 10 -10 16 8 13 22
13 30 -1z m-785 -58 c44 -6 93 -24 156 -56 86 -45 98 -48 186 -52 57 -3 107
-11 128 -21 l35 -17 2 -552 c2 -520 4 -556 22 -605 57 -154 70 -179 114 -232
46 -54 51 -56 96 -56 33 0 56 6 73 20 14 10 47 24 74 30 27 6 58 20 70 31 l21
20 8 -88 c4 -48 9 -207 10 -353 4 -387 19 -634 42 -688 12 -27 16 -67 14 -147
0 -60 4 -189 10 -285 6 -96 12 -218 14 -271 2 -52 11 -117 20 -144 10 -29 18
-89 20 -154 2 -109 13 -210 36 -362 7 -47 10 -93 6 -102 -10 -26 -49 -20 -87
13 -19 16 -42 29 -50 30 -37 1 -265 168 -276 202 -3 12 -25 42 -48 67 -23 25
-58 66 -77 91 -18 24 -58 71 -87 105 -29 33 -68 88 -87 121 -19 34 -51 81 -70
104 -35 42 -128 225 -166 327 -11 28 -27 57 -35 64 -31 25 -44 68 -44 142 0
99 -8 139 -28 135 -27 -5 -36 -65 -22 -149 10 -64 9 -92 -5 -185 -14 -85 -16
-149 -13 -289 5 -186 -2 -246 -27 -225 -8 6 -17 26 -20 43 -4 18 -22 59 -40
92 -49 88 -149 406 -175 555 -6 36 -17 85 -25 110 -8 25 -24 117 -35 205 -11
88 -23 167 -25 175 -2 8 -14 128 -25 267 -23 291 -26 660 -9 1168 6 176 10
410 8 520 -7 377 -7 374 21 397 23 18 34 20 125 14 55 -3 129 -10 165 -15z
m844 -164 c29 -29 37 -63 43 -197 6 -127 5 -140 -11 -140 -18 0 -23 9 -30 58
-2 18 -12 45 -21 59 -21 32 -65 159 -65 188 0 11 5 26 12 33 16 16 56 15 72
-1z m2799 -174 c12 -11 -14 -33 -39 -33 -25 0 -34 24 -11 33 18 8 43 8 50 0z
m-1303 -338 c10 -12 6 -24 -23 -67 -49 -75 -64 -108 -72 -153 -15 -91 -33
-120 -108 -177 -40 -30 -84 -62 -99 -71 -14 -9 -67 -54 -117 -101 -95 -88
-127 -108 -142 -85 -12 20 -11 38 6 96 8 28 26 108 39 179 23 122 66 291 86
342 9 20 17 22 77 23 38 0 109 7 158 14 127 18 180 18 195 0z m2143 -22 c61
-23 73 -32 118 -91 60 -80 66 -101 45 -155 -29 -71 -150 -148 -211 -133 -46
12 -215 275 -215 335 0 23 49 68 80 74 42 8 112 -3 183 -30z m598 20 c30 -9
79 -17 109 -19 79 -3 172 -21 182 -36 13 -22 9 -54 -11 -72 -18 -16 -22 -16
-77 4 -37 13 -83 20 -129 20 -52 0 -78 5 -103 20 -18 11 -46 20 -63 20 -17 0
-53 10 -80 21 -45 20 -59 36 -42 52 13 14 160 7 214 -10z m-1051 -82 c39 -38
70 -75 70 -83 0 -7 18 -35 40 -62 22 -26 40 -53 40 -60 0 -6 8 -24 17 -41 67
-120 123 -242 123 -266 0 -15 5 -39 11 -53 10 -21 8 -35 -11 -81 -24 -60 -57
-93 -123 -125 -60 -29 -113 -63 -145 -92 -15 -14 -43 -31 -62 -38 -19 -8 -59
-38 -87 -67 -40 -40 -73 -62 -135 -88 -45 -19 -90 -33 -99 -30 -8 3 -26 28
-40 56 -13 28 -38 63 -55 78 -33 27 -107 166 -119 223 -4 18 -13 42 -20 53
-20 31 -111 271 -133 350 -21 76 -42 198 -42 245 0 24 9 36 42 60 48 35 107
53 142 44 22 -5 275 32 285 42 2 2 56 4 118 4 l114 0 69 -69z m-1183 9 c41
-16 53 -36 43 -72 -5 -16 -17 -37 -27 -46 -10 -10 -28 -29 -39 -44 -11 -14
-50 -59 -87 -98 l-67 -72 -42 21 c-24 11 -74 27 -112 36 -88 20 -124 39 -131
68 -12 46 39 127 107 172 32 21 49 25 115 25 43 0 85 5 93 10 20 13 112 13
147 0z m240 -132 c5 -7 26 -67 47 -133 60 -193 118 -352 140 -387 7 -13 21
-47 31 -76 20 -62 145 -311 178 -356 13 -17 35 -52 51 -79 l27 -47 -38 -46
c-21 -25 -57 -60 -80 -78 -70 -55 -426 -227 -643 -311 -54 -22 -112 -18 -213
15 -52 16 -117 34 -146 40 -29 5 -66 19 -83 31 -16 12 -48 29 -71 38 -40 15
-119 58 -162 88 -11 7 -38 25 -60 40 -115 75 -215 187 -215 240 0 44 52 128
123 201 117 119 143 126 213 52 112 -118 243 -121 332 -7 53 67 100 154 122
223 22 73 38 101 95 165 22 25 56 72 75 104 62 105 226 295 254 295 7 0 18 -6
23 -12z m1884 -13 c30 -8 67 -15 82 -15 49 0 85 -26 98 -70 11 -35 9 -56 -15
-161 -16 -66 -39 -148 -53 -182 -14 -34 -36 -91 -48 -127 -55 -156 -65 -175
-106 -213 -30 -26 -63 -43 -113 -58 -39 -11 -112 -34 -163 -50 -50 -16 -104
-29 -120 -29 -15 -1 -57 -7 -93 -15 -240 -55 -321 -68 -357 -59 -24 6 -39 16
-41 28 -5 25 76 106 158 157 233 144 270 193 270 354 0 94 11 116 73 145 74
35 121 88 229 259 l40 63 53 -7 c29 -3 77 -13 106 -20z m-2421 -279 c66 -19
80 -35 80 -96 0 -37 -5 -51 -26 -71 -14 -13 -33 -37 -41 -54 -38 -73 -146
-185 -191 -197 -61 -17 -117 33 -108 97 15 106 27 167 38 192 38 85 119 158
168 149 14 -2 50 -11 80 -20z m-394 -100 c3 -8 -3 -29 -13 -48 -39 -71 -80
-116 -156 -168 -44 -30 -85 -63 -92 -73 -21 -30 -115 -107 -131 -107 -8 0 -14
8 -14 18 0 36 60 110 203 250 112 110 151 142 171 142 15 0 29 -6 32 -14z
m3027 -322 c12 -14 39 -44 61 -67 97 -106 193 -238 216 -297 7 -19 25 -55 40
-80 73 -119 64 -170 -43 -256 -39 -32 -117 -97 -172 -145 -85 -73 -124 -98
-265 -168 -91 -45 -192 -96 -226 -114 -33 -18 -87 -43 -120 -56 -32 -13 -97
-41 -144 -61 -47 -21 -96 -41 -110 -45 -14 -4 -70 -24 -125 -46 -55 -21 -136
-48 -179 -59 -116 -29 -175 -27 -453 17 -17 3 -60 -2 -95 -10 -102 -25 -175
-8 -262 62 -21 17 -45 31 -52 31 -7 0 -22 12 -33 27 -18 22 -29 26 -65 25 -43
-2 -45 -1 -65 41 -13 28 -33 49 -58 62 -21 11 -42 25 -46 32 -14 22 -27 14
-27 -16 0 -50 -9 -61 -50 -61 -20 0 -51 -5 -69 -11 -26 -9 -31 -16 -31 -44 0
-55 22 -63 155 -57 l115 5 0 -31 c0 -36 -8 -39 -80 -37 -30 1 -73 -4 -95 -12
-33 -11 -48 -11 -71 -2 -16 6 -87 12 -159 13 -144 2 -187 10 -178 32 4 11 -7
14 -53 14 -65 0 -84 8 -88 35 -2 11 -9 21 -17 23 -11 3 -11 1 1 -7 8 -6 10
-11 4 -11 -6 0 -17 7 -25 16 -19 23 9 38 38 19 16 -11 23 -12 26 -2 3 7 16 0
37 -20 32 -32 35 -33 119 -33 54 0 92 5 99 12 7 7 12 34 12 60 0 43 3 50 25
58 37 14 53 32 47 52 -4 16 5 18 104 18 112 0 157 6 149 20 -10 17 32 21 93 9
50 -10 65 -10 75 0 9 10 8 15 -7 27 -11 8 -30 14 -42 14 -33 0 -66 93 -52 149
11 42 24 52 153 119 17 9 52 31 79 49 26 18 53 33 60 33 6 0 27 11 46 24 19
13 46 27 60 31 14 4 52 20 85 36 146 69 232 102 294 111 36 6 100 21 141 34
41 13 120 28 175 34 55 6 125 18 155 26 30 8 106 23 168 34 62 11 134 28 160
39 26 10 108 38 182 62 119 38 141 48 183 88 27 25 59 66 72 91 29 56 61 86
98 89 5 1 18 -11 30 -25z m-3458 -141 c-7 -31 -30 -60 -57 -74 -30 -16 -22 26
13 66 38 42 54 45 44 8z m392 -544 c15 -5 30 -14 33 -18 3 -4 21 -18 40 -31
19 -14 45 -36 56 -50 12 -14 42 -31 66 -37 30 -8 56 -24 78 -49 28 -33 32 -42
27 -81 -4 -35 -14 -54 -56 -98 -28 -29 -51 -57 -51 -62 0 -4 -29 -38 -65 -76
-36 -37 -65 -71 -65 -76 0 -5 7 -17 16 -25 14 -15 12 -16 -24 -16 -29 0 -48
-8 -73 -29 -57 -50 -117 -47 -136 6 -65 174 -69 231 -29 408 31 135 44 167 86
213 31 34 51 39 97 21z m3243 -343 c0 -19 -86 -96 -106 -96 -9 0 -31 -16 -49
-35 -19 -20 -87 -62 -160 -100 -70 -35 -133 -69 -139 -74 -6 -5 -27 -12 -46
-16 -19 -4 -42 -13 -50 -20 -39 -34 -278 -124 -357 -134 -29 -4 -61 -15 -72
-25 -12 -11 -46 -21 -87 -26 -42 -5 -78 -16 -96 -30 -43 -31 -152 -70 -200
-70 -22 0 -57 -5 -78 -11 -30 -9 -51 -8 -106 6 -88 22 -126 48 -122 84 3 22 8
26 40 29 22 2 62 -7 101 -22 73 -30 97 -32 136 -12 15 8 67 22 115 30 53 9 97
23 113 36 14 11 33 20 42 20 9 1 32 7 51 14 19 8 85 32 145 54 61 22 154 60
208 85 54 26 114 49 133 53 20 4 47 16 62 28 41 33 133 82 170 91 18 3 46 18
62 31 16 14 59 33 95 43 37 10 79 30 93 44 27 25 81 48 95 40 4 -2 7 -10 7
-17z"/>
<path d="M5233 6045 c-75 -32 -81 -104 -17 -204 57 -87 92 -105 226 -109 l107
-4 31 30 c33 33 36 54 18 114 -16 53 -47 84 -99 98 -24 7 -77 30 -118 51 -81
42 -99 45 -148 24z"/>
<path d="M3787 5693 c-30 -27 -93 -90 -141 -140 -100 -108 -108 -133 -56 -198
76 -95 120 -94 273 8 91 60 157 148 157 209 0 31 -28 82 -69 127 -54 59 -91
57 -164 -6z"/>
<path d="M5175 5214 c-73 -57 -159 -78 -218 -55 -69 27 -132 1 -174 -70 -9
-15 -37 -43 -61 -60 -52 -38 -96 -40 -147 -9 -18 11 -39 20 -48 20 -26 0 -45
-37 -38 -73 8 -37 48 -68 122 -92 47 -16 53 -16 95 0 24 9 70 36 102 59 74 55
108 66 204 66 65 0 88 5 130 26 58 29 104 74 125 122 12 30 12 37 -2 58 -18
28 -59 32 -90 8z"/>
</g>
</svg>
